# xmcd
#
# Track frame offsets:
#	150
#	14796
#	32841
#	45440
#	69293
#	77933
#	90271
#	106223
#	116491
#	133462
#	143256
#	159297
#	175770
#	191566
#	205605
# Disc length: 3155 seconds
# Revision: 1
# Processed by: cddbd v1.5.2PL0 Copyright (c) Steve Scherf et al.
#
# Submitted via: libkcddb 0.31
#
DISCID=bc0c510f
DTITLE=Boizinho Barrica - Boizinho Barrica
DYEAR=1900
DGENRE=
TTITLE0=Inácio Pinheiro- Roberto Brandão - Saudação
TTITLE1=Inácio Pinheiro - Roberto Brandão - São João dos Carneirinhos
TTITLE2=Inácio Pinheiro - Toca a Orquestra
TTITLE3=Roberto Brandão - É Muito Fogo - Coco da Lua - Coqueirinho de Praia
TTITLE4=Roberto Brandão - Trepa Menina
TTITLE5=Inácio Pinheiro - Coisas do Amor
TTITLE6=Roberto Brandão - Boi de Lágrimas
TTITLE7=Inácio Pinheiro - Rompendo Fogo
TTITLE8=Roberto Brandão - Novilho Verdadeiro
TTITLE9=Inácio Pinheiro - Promessa de São João
TTITLE10=Inácio Pinheiro - Roberto Brandão - Amor Barrica - Passeio na Roça - Qua Qua Qua
TTITLE11=Roberto Brandão - Beleza de Lua - Soltar Toada
TTITLE12=Inácio Pinheiro - Roberto Brandão - Estrela do Cruzeiro - Linda Vaqueirada
TTITLE13=Inácio Pinheiro - Estrela d'Aurora
TTITLE14=Inácio Pinheiro - Roberto Brandão - Lua Cheia - Adeus Morena - Viva São João
EXTD=
EXTT0=José Pereira Godão
EXTT1=José Pereira Godão
EXTT2=Luis Bulcão - José Pereira Godão
EXTT3=José Pereira Godão
EXTT4=Luis Bulcão
EXTT5=Luis Bulcão
EXTT6=Raimundo Makarra
EXTT7=Wellington Reis
EXTT8=Luis Bulcão
EXTT9=Luis Bulcão
EXTT10=José Pereira Godão
EXTT11=Luis Bulcão - Mané Onça
EXTT12=Luis Bulcão
EXTT13=José Pereira Godão
EXTT14=Luis BulcãoJosé Pereira Godão
PLAYORDER=
